<svg width="729" height="500">
  <polygon points="43.30 -25.00,43.30 25.00,0.00 50.00,-43.30 25.00,-43.30 -25.00,-0.00 -50.00" fill="rgb(65,85,169)" stroke="rgb(65,85,169)" stroke-width="1"/>
  <polygon points="129.90 -25.00,129.90 25.00,86.60 50.00,43.30 25.00,43.30 -25.00,86.60 -50.00" fill="rgb(72,81,100)" stroke="rgb(72,81,100)" stroke-width="1"/>
  <polygon points="216.51 -25.00,216.51 25.00,173.21 50.00,129.90 25.00,129.90 -25.00,173.21 -50.00" fill="rgb(55,76,155)" stroke="rgb(55,76,155)" stroke-width="1"/>
  <polygon points="303.11 -25.00,303.11 25.00,259.81 50.00,216.51 25.00,216.51 -25.00,259.81 -50.00" fill="rgb(61,82,141)" stroke="rgb(61,82,141)" stroke-width="1"/>
  <polygon points="389.71 -25.00,389.71 25.00,346.41 50.00,303.11 25.00,303.11 -25.00,346.41 -50.00" fill="rgb(58,71,140)" stroke="rgb(58,71,140)" stroke-width="1"/>
  <polygon points="476.31 -25.00,476.31 25.00,433.01 50.00,389.71 25.00,389.71 -25.00,433.01 -50.00" fill="rgb(98,123,155)" stroke="rgb(98,123,155)" stroke-width="1"/>
  <polygon points="562.92 -25.00,562.92 25.00,519.62 50.00,476.31 25.00,476.31 -25.00,519.62 -50.00" fill="rgb(67,87,154)" stroke="rgb(67,87,154)" stroke-width="1"/>
  <polygon points="649.52 -25.00,649.52 25.00,606.22 50.00,562.92 25.00,562.92 -25.00,606.22 -50.00" fill="rgb(194,206,148)" stroke="rgb(194,206,148)" stroke-width="1"/>
  <polygon points="736.12 -25.00,736.12 25.00,692.82 50.00,649.52 25.00,649.52 -25.00,692.82 -50.00" fill="rgb(201,207,157)" stroke="rgb(201,207,157)" stroke-width="1"/>
  <polygon points="86.60 50.00,86.60 100.00,43.30 125.00,-0.00 100.00,0.00 50.00,43.30 25.00" fill="rgb(60,82,151)" stroke="rgb(60,82,151)" stroke-width="1"/>
  <polygon points="173.21 50.00,173.21 100.00,129.90 125.00,86.60 100.00,86.60 50.00,129.90 25.00" fill="rgb(101,124,165)" stroke="rgb(101,124,165)" stroke-width="1"/>
  <polygon points="259.81 50.00,259.81 100.00,216.51 125.00,173.21 100.00,173.21 50.00,216.51 25.00" fill="rgb(117,142,167)" stroke="rgb(117,142,167)" stroke-width="1"/>
  <polygon points="346.41 50.00,346.41 100.00,303.11 125.00,259.81 100.00,259.81 50.00,303.11 25.00" fill="rgb(102,124,160)" stroke="rgb(102,124,160)" stroke-width="1"/>
  <polygon points="433.01 50.00,433.01 100.00,389.71 125.00,346.41 100.00,346.41 50.00,389.71 25.00" fill="rgb(108,133,179)" stroke="rgb(108,133,179)" stroke-width="1"/>
  <polygon points="519.62 50.00,519.62 100.00,476.31 125.00,433.01 100.00,433.01 50.00,476.31 25.00" fill="rgb(137,155,157)" stroke="rgb(137,155,157)" stroke-width="1"/>
  <polygon points="606.22 50.00,606.22 100.00,562.92 125.00,519.62 100.00,519.62 50.00,562.92 25.00" fill="rgb(105,136,184)" stroke="rgb(105,136,184)" stroke-width="1"/>
  <polygon points="692.82 50.00,692.82 100.00,649.52 125.00,606.22 100.00,606.22 50.00,649.52 25.00" fill="rgb(215,202,93)" stroke="rgb(215,202,93)" stroke-width="1"/>
  <polygon points="779.42 50.00,779.42 100.00,736.12 125.00,692.82 100.00,692.82 50.00,736.12 25.00" fill="rgb(163,187,173)" stroke="rgb(163,187,173)" stroke-width="1"/>
  <polygon points="43.30 125.00,43.30 175.00,0.00 200.00,-43.30 175.00,-43.30 125.00,-0.00 100.00" fill="rgb(122,150,189)" stroke="rgb(122,150,189)" stroke-width="1"/>
  <polygon points="129.90 125.00,129.90 175.00,86.60 200.00,43.30 175.00,43.30 125.00,86.60 100.00" fill="rgb(66,76,83)" stroke="rgb(66,76,83)" stroke-width="1"/>
  <polygon points="216.51 125.00,216.51 175.00,173.21 200.00,129.90 175.00,129.90 125.00,173.21 100.00" fill="rgb(115,139,153)" stroke="rgb(115,139,153)" stroke-width="1"/>
  <polygon points="303.11 125.00,303.11 175.00,259.81 200.00,216.51 175.00,216.51 125.00,259.81 100.00" fill="rgb(114,138,176)" stroke="rgb(114,138,176)" stroke-width="1"/>
  <polygon points="389.71 125.00,389.71 175.00,346.41 200.00,303.11 175.00,303.11 125.00,346.41 100.00" fill="rgb(108,136,183)" stroke="rgb(108,136,183)" stroke-width="1"/>
  <polygon points="476.31 125.00,476.31 175.00,433.01 200.00,389.71 175.00,389.71 125.00,433.01 100.00" fill="rgb(93,118,167)" stroke="rgb(93,118,167)" stroke-width="1"/>
  <polygon points="562.92 125.00,562.92 175.00,519.62 200.00,476.31 175.00,476.31 125.00,519.62 100.00" fill="rgb(87,121,174)" stroke="rgb(87,121,174)" stroke-width="1"/>
  <polygon points="649.52 125.00,649.52 175.00,606.22 200.00,562.92 175.00,562.92 125.00,606.22 100.00" fill="rgb(93,132,191)" stroke="rgb(93,132,191)" stroke-width="1"/>
  <polygon points="736.12 125.00,736.12 175.00,692.82 200.00,649.52 175.00,649.52 125.00,692.82 100.00" fill="rgb(97,131,175)" stroke="rgb(97,131,175)" stroke-width="1"/>
  <polygon points="86.60 200.00,86.60 250.00,43.30 275.00,-0.00 250.00,0.00 200.00,43.30 175.00" fill="rgb(103,112,98)" stroke="rgb(103,112,98)" stroke-width="1"/>
  <polygon points="173.21 200.00,173.21 250.00,129.90 275.00,86.60 250.00,86.60 200.00,129.90 175.00" fill="rgb(72,95,129)" stroke="rgb(72,95,129)" stroke-width="1"/>
  <polygon points="259.81 200.00,259.81 250.00,216.51 275.00,173.21 250.00,173.21 200.00,216.51 175.00" fill="rgb(143,167,190)" stroke="rgb(143,167,190)" stroke-width="1"/>
  <polygon points="346.41 200.00,346.41 250.00,303.11 275.00,259.81 250.00,259.81 200.00,303.11 175.00" fill="rgb(110,139,176)" stroke="rgb(110,139,176)" stroke-width="1"/>
  <polygon points="433.01 200.00,433.01 250.00,389.71 275.00,346.41 250.00,346.41 200.00,389.71 175.00" fill="rgb(97,126,169)" stroke="rgb(97,126,169)" stroke-width="1"/>
  <polygon points="519.62 200.00,519.62 250.00,476.31 275.00,433.01 250.00,433.01 200.00,476.31 175.00" fill="rgb(106,134,177)" stroke="rgb(106,134,177)" stroke-width="1"/>
  <polygon points="606.22 200.00,606.22 250.00,562.92 275.00,519.62 250.00,519.62 200.00,562.92 175.00" fill="rgb(101,133,178)" stroke="rgb(101,133,178)" stroke-width="1"/>
  <polygon points="692.82 200.00,692.82 250.00,649.52 275.00,606.22 250.00,606.22 200.00,649.52 175.00" fill="rgb(190,204,191)" stroke="rgb(190,204,191)" stroke-width="1"/>
  <polygon points="779.42 200.00,779.42 250.00,736.12 275.00,692.82 250.00,692.82 200.00,736.12 175.00" fill="rgb(182,194,188)" stroke="rgb(182,194,188)" stroke-width="1"/>
  <polygon points="43.30 275.00,43.30 325.00,0.00 350.00,-43.30 325.00,-43.30 275.00,-0.00 250.00" fill="rgb(80,115,173)" stroke="rgb(80,115,173)" stroke-width="1"/>
  <polygon points="129.90 275.00,129.90 325.00,86.60 350.00,43.30 325.00,43.30 275.00,86.60 250.00" fill="rgb(36,41,38)" stroke="rgb(36,41,38)" stroke-width="1"/>
  <polygon points="216.51 275.00,216.51 325.00,173.21 350.00,129.90 325.00,129.90 275.00,173.21 250.00" fill="rgb(146,162,169)" stroke="rgb(146,162,169)" stroke-width="1"/>
  <polygon points="303.11 275.00,303.11 325.00,259.81 350.00,216.51 325.00,216.51 275.00,259.81 250.00" fill="rgb(134,157,170)" stroke="rgb(134,157,170)" stroke-width="1"/>
  <polygon points="389.71 275.00,389.71 325.00,346.41 350.00,303.11 325.00,303.11 275.00,346.41 250.00" fill="rgb(111,142,166)" stroke="rgb(111,142,166)" stroke-width="1"/>
  <polygon points="476.31 275.00,476.31 325.00,433.01 350.00,389.71 325.00,389.71 275.00,433.01 250.00" fill="rgb(132,160,169)" stroke="rgb(132,160,169)" stroke-width="1"/>
  <polygon points="562.92 275.00,562.92 325.00,519.62 350.00,476.31 325.00,476.31 275.00,519.62 250.00" fill="rgb(140,168,176)" stroke="rgb(140,168,176)" stroke-width="1"/>
  <polygon points="649.52 275.00,649.52 325.00,606.22 350.00,562.92 325.00,562.92 275.00,606.22 250.00" fill="rgb(124,146,157)" stroke="rgb(124,146,157)" stroke-width="1"/>
  <polygon points="736.12 275.00,736.12 325.00,692.82 350.00,649.52 325.00,649.52 275.00,692.82 250.00" fill="rgb(45,48,67)" stroke="rgb(45,48,67)" stroke-width="1"/>
  <polygon points="86.60 350.00,86.60 400.00,43.30 425.00,-0.00 400.00,0.00 350.00,43.30 325.00" fill="rgb(71,88,102)" stroke="rgb(71,88,102)" stroke-width="1"/>
  <polygon points="173.21 350.00,173.21 400.00,129.90 425.00,86.60 400.00,86.60 350.00,129.90 325.00" fill="rgb(44,48,49)" stroke="rgb(44,48,49)" stroke-width="1"/>
  <polygon points="259.81 350.00,259.81 400.00,216.51 425.00,173.21 400.00,173.21 350.00,216.51 325.00" fill="rgb(86,110,133)" stroke="rgb(86,110,133)" stroke-width="1"/>
  <polygon points="346.41 350.00,346.41 400.00,303.11 425.00,259.81 400.00,259.81 350.00,303.11 325.00" fill="rgb(71,91,131)" stroke="rgb(71,91,131)" stroke-width="1"/>
  <polygon points="433.01 350.00,433.01 400.00,389.71 425.00,346.41 400.00,346.41 350.00,389.71 325.00" fill="rgb(69,88,140)" stroke="rgb(69,88,140)" stroke-width="1"/>
  <polygon points="519.62 350.00,519.62 400.00,476.31 425.00,433.01 400.00,433.01 350.00,476.31 325.00" fill="rgb(52,64,114)" stroke="rgb(52,64,114)" stroke-width="1"/>
  <polygon points="606.22 350.00,606.22 400.00,562.92 425.00,519.62 400.00,519.62 350.00,562.92 325.00" fill="rgb(71,93,144)" stroke="rgb(71,93,144)" stroke-width="1"/>
  <polygon points="692.82 350.00,692.82 400.00,649.52 425.00,606.22 400.00,606.22 350.00,649.52 325.00" fill="rgb(105,130,178)" stroke="rgb(105,130,178)" stroke-width="1"/>
  <polygon points="779.42 350.00,779.42 400.00,736.12 425.00,692.82 400.00,692.82 350.00,736.12 325.00" fill="rgb(89,108,151)" stroke="rgb(89,108,151)" stroke-width="1"/>
  <polygon points="43.30 425.00,43.30 475.00,0.00 500.00,-43.30 475.00,-43.30 425.00,-0.00 400.00" fill="rgb(50,61,84)" stroke="rgb(50,61,84)" stroke-width="1"/>
  <polygon points="129.90 425.00,129.90 475.00,86.60 500.00,43.30 475.00,43.30 425.00,86.60 400.00" fill="rgb(39,44,39)" stroke="rgb(39,44,39)" stroke-width="1"/>
  <polygon points="216.51 425.00,216.51 475.00,173.21 500.00,129.90 475.00,129.90 425.00,173.21 400.00" fill="rgb(37,40,36)" stroke="rgb(37,40,36)" stroke-width="1"/>
  <polygon points="303.11 425.00,303.11 475.00,259.81 500.00,216.51 475.00,216.51 425.00,259.81 400.00" fill="rgb(50,58,76)" stroke="rgb(50,58,76)" stroke-width="1"/>
  <polygon points="389.71 425.00,389.71 475.00,346.41 500.00,303.11 475.00,303.11 425.00,346.41 400.00" fill="rgb(67,81,97)" stroke="rgb(67,81,97)" stroke-width="1"/>
  <polygon points="476.31 425.00,476.31 475.00,433.01 500.00,389.71 475.00,389.71 425.00,433.01 400.00" fill="rgb(61,82,109)" stroke="rgb(61,82,109)" stroke-width="1"/>
  <polygon points="562.92 425.00,562.92 475.00,519.62 500.00,476.31 475.00,476.31 425.00,519.62 400.00" fill="rgb(57,71,88)" stroke="rgb(57,71,88)" stroke-width="1"/>
  <polygon points="649.52 425.00,649.52 475.00,606.22 500.00,562.92 475.00,562.92 425.00,606.22 400.00" fill="rgb(71,90,118)" stroke="rgb(71,90,118)" stroke-width="1"/>
  <polygon points="736.12 425.00,736.12 475.00,692.82 500.00,649.52 475.00,649.52 425.00,692.82 400.00" fill="rgb(81,99,115)" stroke="rgb(81,99,115)" stroke-width="1"/>
  <polygon points="86.60 500.00,86.60 550.00,43.30 575.00,-0.00 550.00,0.00 500.00,43.30 475.00" fill="rgb(0,0,0)" stroke="rgb(0,0,0)" stroke-width="1"/>
  <polygon points="173.21 500.00,173.21 550.00,129.90 575.00,86.60 550.00,86.60 500.00,129.90 475.00" fill="rgb(0,0,0)" stroke="rgb(0,0,0)" stroke-width="1"/>
  <polygon points="259.81 500.00,259.81 550.00,216.51 575.00,173.21 550.00,173.21 500.00,216.51 475.00" fill="rgb(0,0,0)" stroke="rgb(0,0,0)" stroke-width="1"/>
  <polygon points="346.41 500.00,346.41 550.00,303.11 575.00,259.81 550.00,259.81 500.00,303.11 475.00" fill="rgb(0,0,0)" stroke="rgb(0,0,0)" stroke-width="1"/>
  <polygon points="433.01 500.00,433.01 550.00,389.71 575.00,346.41 550.00,346.41 500.00,389.71 475.00" fill="rgb(0,0,0)" stroke="rgb(0,0,0)" stroke-width="1"/>
  <polygon points="519.62 500.00,519.62 550.00,476.31 575.00,433.01 550.00,433.01 500.00,476.31 475.00" fill="rgb(0,0,0)" stroke="rgb(0,0,0)" stroke-width="1"/>
  <polygon points="606.22 500.00,606.22 550.00,562.92 575.00,519.62 550.00,519.62 500.00,562.92 475.00" fill="rgb(0,0,0)" stroke="rgb(0,0,0)" stroke-width="1"/>
  <polygon points="692.82 500.00,692.82 550.00,649.52 575.00,606.22 550.00,606.22 500.00,649.52 475.00" fill="rgb(0,0,0)" stroke="rgb(0,0,0)" stroke-width="1"/>
  <polygon points="779.42 500.00,779.42 550.00,736.12 575.00,692.82 550.00,692.82 500.00,736.12 475.00" fill="rgb(0,0,0)" stroke="rgb(0,0,0)" stroke-width="1"/>
</svg>
